<svg xmlns="http://www.w3.org/2000/svg" version="1.1" xmlns:xlink="http://www.w3.org/1999/xlink" xmlns:svgjs="http://svgjs.dev/svgjs" width="1440" height="560" preserveAspectRatio="none" viewBox="0 0 1440 560"><g mask="url(&quot;#SvgjsMask1002&quot;)" fill="none"><rect width="1440" height="560" x="0" y="0" fill="url(&quot;#SvgjsLinearGradient1003&quot;)"></rect><path d="M1440 0L901.34 0L1440 135.32z" fill="rgba(255, 255, 255, .1)"></path><path d="M901.34 0L1440 135.32L1440 193.39L522.4000000000001 0z" fill="rgba(255, 255, 255, .075)"></path><path d="M522.4000000000001 0L1440 193.39L1440 225.39999999999998L273.9200000000001 0z" fill="rgba(255, 255, 255, .05)"></path><path d="M273.9200000000001 0L1440 225.39999999999998L1440 287.21L159.42000000000007 0z" fill="rgba(255, 255, 255, .025)"></path><path d="M0 560L554.42 560L0 399.58000000000004z" fill="rgba(0, 0, 0, .1)"></path><path d="M0 399.58000000000004L554.42 560L723.55 560L0 190.14000000000004z" fill="rgba(0, 0, 0, .075)"></path><path d="M0 190.14L723.55 560L1065.67 560L0 73.71999999999998z" fill="rgba(0, 0, 0, .05)"></path><path d="M0 73.71999999999997L1065.67 560L1319.8000000000002 560L0 55.91999999999997z" fill="rgba(0, 0, 0, .025)"></path></g><defs><mask id="SvgjsMask1002"><rect width="1440" height="560" fill="#ffffff"></rect></mask><linearGradient x1="15.28%" y1="-39.29%" x2="84.72%" y2="139.29%" gradientUnits="userSpaceOnUse" id="SvgjsLinearGradient1003"><stop stop-color="#0e2a47" offset="0"></stop><stop stop-color="#00459e" offset="1"></stop></linearGradient></defs></svg>